<svg height="512" width="512" xmlns="http://www.w3.org/2000/svg"><path d="M507 256.879c0 138.066-111.934 250-250 250-138.067 0-250-111.934-250-250 0-138.067 111.933-250 250-250 138.066 0 250 111.933 250 250zm0 0" fill="#DC4F42"/><path d="M94.04 268.063c-.892 43.02 28.745 84.059 69.501 97.441 38.385 12.909 85.582 3.264 111.128-29.615 18.648-23.044 22.892-53.747 20.868-82.427-32.88-.305-65.759-.193-98.573-.155-.065 11.71 0 23.373.043 35.08 19.671.544 39.363.305 59.057.696-4.961 17.038-16.299 32.879-33.467 39.037-33.184 14.601-75.485-4.482-85.93-39.276-12.599-33.337 8.029-73.549 42.083-83.232 21.107-7.42 42.867.936 60.928 11.906 9.14-8.552 17.713-17.715 26.134-26.963-20.541-17.169-46.914-27.701-74.027-25.394-53.202.633-99.766 49.743-97.745 102.902zm0 0M359.511 223.76c-.087 9.816-.195 19.649-.239 29.441-9.857.089-19.649.149-29.441.196v29.332c9.792.044 19.649.087 29.441.196.087 9.792.087 19.589.196 29.441 9.748 0 19.54-.065 29.332 0 .044-9.853.087-19.649.196-29.485 9.792-.043 19.627-.108 29.419-.152v-29.332c-9.792-.046-19.627-.09-29.419-.196-.071-9.792-.152-19.625-.196-29.417-9.792-.024-19.54-.024-29.289-.024zm0 0" fill="#DC4F42"/><path d="M94.04 268.063c-2.021-53.16 44.543-102.269 97.746-102.903 27.113-2.307 53.486 8.225 74.027 25.394-8.421 9.248-16.994 18.412-26.134 26.963-18.082-10.97-39.82-19.348-60.949-11.906-34.054 9.683-54.683 49.896-42.062 83.21 10.423 34.816 52.746 53.899 85.93 39.277 17.168-6.137 28.483-21.978 33.467-39.016-19.693-.392-39.386-.152-59.057-.696-.065-11.707-.109-23.37-.065-35.08 32.836-.063 65.715-.15 98.595.133 2.002 28.702-2.22 59.405-20.89 82.449-25.524 32.879-72.722 42.524-111.128 29.615-40.735-13.381-70.373-54.42-69.48-97.44zm0 0M359.511 223.76H388.8c.044 9.816.125 19.649.196 29.441 9.792.089 19.627.149 29.419.196v29.332c-9.792.044-19.627.087-29.419.152-.109 9.836-.152 19.633-.196 29.463-9.792-.043-19.605 0-29.332 0-.109-9.83-.109-19.627-.196-29.419-9.792-.109-19.649-.152-29.441-.196v-29.332c9.792-.068 19.584-.106 29.441-.196.043-9.791.13-19.624.239-29.441zm0 0" fill="#FFF"/></svg>